<?xml version="1.0" encoding="iso-8859-1"?>
<!-- Generator: Adobe Illustrator 19.0.0, SVG Export Plug-In . SVG Version: 6.00 Build 0)  -->
<svg version="1.1" id="Capa_1" xmlns="http://www.w3.org/2000/svg" xmlns:xlink="http://www.w3.org/1999/xlink" x="0px" y="0px"
	 viewBox="0 0 479.668 479.668" style="enable-background:new 0 0 479.668 479.668;" xml:space="preserve">
<g>
	<path d="M288.334,463.667h-3.475c-12.518-24.927-22.664-77.036-29.434-151.433c-5.848-64.275-7.506-126.414-7.588-152.233h15.913
		c4.418,0,8-3.582,8-8s-3.582-8-8-8h-47.833c-4.418,0-8,3.582-8,8s3.582,8,8,8h15.913c-0.081,25.979-1.71,88.33-7.464,152.241
		c-6.699,74.402-16.802,126.509-29.308,151.426h-3.724c-4.418,0-8,3.582-8,8s3.582,8,8,8h8.47c0.008,0,0.015,0.001,0.023,0.001
		c0.008,0,0.015-0.001,0.023-0.001h80.219c0.008,0,0.015,0.001,0.023,0.001c0.008,0,0.015-0.001,0.023-0.001h8.22
		c4.418,0,8-3.582,8-8S292.752,463.667,288.334,463.667z M267.295,463.667h-19.461v-79.772
		C253.223,418.861,259.727,445.529,267.295,463.667z M231.834,385.115v78.552H212.62
		C220.091,445.744,226.511,419.481,231.834,385.115z"/>
	<path d="M215.917,135.583h46.204c0.528,0.11,1.072,0.167,1.624,0.167c0.419,0,0.845-0.033,1.271-0.101
		c3.88-0.622,6.735-3.969,6.735-7.899v-0.167c0-1.201-0.265-2.341-0.739-3.363l-7.577-23.052c-1.079-3.283-4.145-5.502-7.6-5.502h-8
		V8c0-4.418-3.582-8-8-8s-8,3.582-8,8v87.667h-7.667c-3.406,0-6.439,2.157-7.557,5.375l-8.25,23.75
		c-0.293,0.844-0.443,1.731-0.443,2.625v0.167C207.917,132.001,211.499,135.583,215.917,135.583z M229.857,111.667h20.185
		l2.603,7.917h-25.538L229.857,111.667z"/>
</g>
<g>
</g>
<g>
</g>
<g>
</g>
<g>
</g>
<g>
</g>
<g>
</g>
<g>
</g>
<g>
</g>
<g>
</g>
<g>
</g>
<g>
</g>
<g>
</g>
<g>
</g>
<g>
</g>
<g>
</g>
</svg>
